<svg xmlns="http://www.w3.org/2000/svg" width="34" height="34" viewBox="0 0 34 34" fill="none">
  <path d="M29.75 17H25.5538C25.2563 17 25.1062 17 24.9801 17.0595C24.8648 17.1141 24.7665 17.1987 24.6953 17.3046C24.6089 17.4292 24.565 17.595 24.4758 17.9279L21.9017 27.6264C21.5716 28.866 21.4072 29.4865 21.1593 29.6466C21.0575 29.7144 20.9377 29.7503 20.8154 29.7498C20.693 29.7493 20.5736 29.7124 20.4722 29.6437C20.2243 29.4808 20.0642 28.8589 19.7441 27.6179L14.2573 6.38208C13.9357 5.14108 13.7757 4.51916 13.5277 4.35625C13.4264 4.28761 13.307 4.25069 13.1846 4.25019C13.0623 4.24968 12.9425 4.28562 12.8407 4.35341C12.5927 4.5135 12.4284 5.13258 12.0983 6.37358L9.52425 16.0707C9.435 16.405 9.39108 16.5707 9.30608 16.694C9.23476 16.8006 9.13586 16.8857 9.01992 16.9405C8.89383 17 8.74508 17 8.44617 17H4.25" stroke="#00B5A3" stroke-width="1.5" stroke-linecap="round" stroke-linejoin="round"/>
</svg>