<svg xmlns="http://www.w3.org/2000/svg" width="34" height="34" viewBox="0 0 34 34" fill="none">
  <path d="M17.0002 28.3333C20.006 28.3333 22.8886 27.1393 25.014 25.0139C27.1395 22.8884 28.3335 20.0058 28.3335 17C28.3335 13.9942 27.1395 11.1115 25.014 8.9861C22.8886 6.86069 20.006 5.66665 17.0002 5.66665C13.9944 5.66665 11.1117 6.86069 8.98629 8.9861C6.86087 11.1115 5.66683 13.9942 5.66683 17C5.66683 20.0058 6.86087 22.8884 8.98629 25.0139C11.1117 27.1393 13.9944 28.3333 17.0002 28.3333ZM17.0002 2.83331C18.8606 2.83331 20.7027 3.19974 22.4215 3.91169C24.1403 4.62363 25.702 5.66714 27.0175 6.98263C28.333 8.29813 29.3765 9.85985 30.0885 11.5786C30.8004 13.2974 31.1668 15.1396 31.1668 17C31.1668 20.7572 29.6743 24.3606 27.0175 27.0173C24.3607 29.6741 20.7574 31.1666 17.0002 31.1666C9.166 31.1666 2.8335 24.7916 2.8335 17C2.8335 13.2427 4.32605 9.6394 6.98282 6.98263C9.63958 4.32587 13.2429 2.83331 17.0002 2.83331ZM17.7085 9.91665V17.3541L24.0835 21.1366L23.021 22.8791L15.5835 18.4166V9.91665H17.7085Z" fill="#00B5A3"/>
</svg>