<svg xmlns="http://www.w3.org/2000/svg" width="34" height="34" viewBox="0 0 34 34" fill="none">
  <path d="M15.9375 25.5V27.625H7.96875C3.50625 27.625 0 24.0125 0 19.6562C0 15.8313 2.7625 12.5375 6.48125 11.7938C6.48125 11.7938 7.11875 11.6875 7.4375 11.6875H7.65L5.95 9.9875L7.4375 8.5L11.6875 12.75L7.4375 17L5.95 15.5125L7.65 13.8125H7.4375C4.8875 14.025 2.55 16.2563 2.23125 18.8063C1.7 22.4188 4.4625 25.5 7.96875 25.5H15.9375ZM19.125 25.5C18.5938 25.5 18.0625 26.0312 18.0625 26.5625C18.0625 27.0938 18.5938 27.625 19.125 27.625C19.6562 27.625 20.1875 27.0938 20.1875 26.5625C20.1875 26.0312 19.6562 25.5 19.125 25.5ZM27.5187 11.7938L27.4125 11.6875C26.5625 7.4375 23.2687 4.14375 19.0187 3.4C18.3813 3.1875 17.6375 3.1875 17 3.1875C13.9187 3.1875 11.05 4.56875 9.1375 6.69375L10.7313 8.2875C12.0063 6.8 13.8125 5.63125 15.9375 5.41875C17 5.3125 17.9562 5.3125 19.0187 5.525C22.4187 6.26875 24.8625 9.1375 25.5 12.4312L25.7125 13.4937C25.7125 13.5646 25.7479 13.6 25.8187 13.6L26.9875 13.8125C28.2625 14.025 29.4312 14.5562 30.2812 15.4062C31.6625 16.7875 32.3 18.7 31.875 20.6125C31.3438 23.2687 29.2188 25.1812 26.5625 25.3937L28.1562 23.6937L26.5625 22.3125L22.3125 26.5625L26.5625 30.8125L28.05 29.325L26.35 27.625C30.0687 27.4125 33.15 24.7563 33.8937 21.1437C34 20.6125 34 20.1875 34 19.7625C34 15.8313 31.3438 12.5375 27.5187 11.7938Z" fill="#00B5A3"/>
</svg>