<svg xmlns="http://www.w3.org/2000/svg" width="40" height="40" viewBox="0 0 40 40" fill="none">
  <circle cx="20" cy="20" r="20" fill="#00B5A3"/>
  <path fill-rule="evenodd" clip-rule="evenodd" d="M18.937 13.4857C18.9028 13.2801 18.7847 13.098 18.6111 12.9828C18.4374 12.8675 18.2237 12.8296 18.021 12.8779C16.402 13.2641 15.4873 13.5875 14.0433 14.4719C13.9335 14.5391 13.8428 14.6335 13.7799 14.7458C12.8847 16.3451 12.2895 17.7247 11.9231 19.2045C11.5575 20.6813 11.4285 22.2232 11.4285 24.1356C11.4285 24.335 11.5077 24.5263 11.6487 24.6673C12.4449 25.4635 13.2711 26.0907 14.2246 26.5144C15.1814 26.9397 16.2279 27.1431 17.4435 27.1431C17.7671 27.1431 18.0545 26.9361 18.1568 26.629L18.6641 25.1071C19.2278 25.2018 19.8322 25.2634 20.451 25.2634C21.0699 25.2634 21.6743 25.2018 22.2379 25.1071L22.7452 26.629C22.8476 26.9361 23.1349 27.1431 23.4585 27.1431C24.6741 27.1431 25.7206 26.9397 26.6775 26.5144C27.6309 26.0907 28.4571 25.4635 29.2534 24.6673C29.3943 24.5263 29.4736 24.335 29.4736 24.1356C29.4736 22.2232 29.3446 20.6813 28.9789 19.2045C28.6126 17.7247 28.0173 16.3451 27.1222 14.7458C27.0593 14.6335 26.9685 14.5391 26.8588 14.4719C25.4147 13.5875 24.5 13.2641 22.8811 12.8779C22.6784 12.8296 22.4646 12.8675 22.291 12.9828C22.1173 13.098 21.9993 13.2801 21.965 13.4857L21.6808 15.1911C21.2999 15.142 20.8895 15.113 20.451 15.113C20.0125 15.113 19.6021 15.142 19.2212 15.1911L18.937 13.4857ZM23.995 25.6231L23.7115 24.7725C24.3774 24.5832 25.0381 24.359 25.6639 24.0614C26.0382 23.8816 26.1958 23.4324 26.016 23.0581C25.8361 22.6839 25.3869 22.5264 25.0126 22.706C24.5657 22.917 24.0943 23.083 23.6233 23.2298C22.7594 23.4992 21.6176 23.7597 20.451 23.7597C19.2844 23.7597 18.1426 23.4992 17.2788 23.2298C16.808 23.0831 16.3389 22.9161 15.8917 22.707C15.5203 22.5317 15.0653 22.6852 14.8861 23.0581C14.7076 23.4296 14.8712 23.8861 15.2422 24.0634C15.8669 24.3595 16.526 24.5836 17.1905 24.7725L16.907 25.6231C16.1098 25.5731 15.4394 25.4088 14.8353 25.1403C14.1744 24.8465 13.5621 24.4145 12.9335 23.8196C12.9474 22.126 13.0762 20.804 13.3828 19.5659C13.6951 18.3046 14.1998 17.0979 14.9963 15.6528C15.943 15.0864 16.6172 14.8049 17.5881 14.5389L17.7496 15.5079C17.0916 15.7101 16.4218 15.9776 15.8668 16.3895C15.5407 16.6328 15.4699 17.1181 15.7142 17.4438C15.9625 17.7749 16.4314 17.8429 16.7634 17.5968C17.0404 17.3985 17.3613 17.2527 17.6758 17.1269C18.3053 16.8751 19.2444 16.6168 20.451 16.6168C21.6576 16.6168 22.5967 16.8751 23.2263 17.1269C23.5407 17.2527 23.8616 17.3984 24.1386 17.5967C24.4706 17.8429 24.9396 17.7749 25.1879 17.4438C25.4315 17.1189 25.3578 16.6289 25.0324 16.3874C24.4717 15.9824 23.8114 15.7104 23.1525 15.5079L23.314 14.5389C24.2848 14.8049 24.9591 15.0864 25.9058 15.6528C26.7022 17.0979 27.207 18.3046 27.5193 19.5659C27.8258 20.804 27.9546 22.126 27.9685 23.8196C27.3399 24.4145 26.7276 24.8465 26.0667 25.1403C25.4626 25.4088 24.7922 25.5731 23.995 25.6231ZM18.1954 22.2559C19.0259 22.2559 19.6991 21.4143 19.6991 20.3762C19.6991 19.3381 19.0259 18.4965 18.1954 18.4965C17.3649 18.4965 16.6916 19.3381 16.6916 20.3762C16.6916 21.4143 17.3649 22.2559 18.1954 22.2559ZM24.2104 20.3762C24.2104 21.4143 23.5372 22.2559 22.7067 22.2559C21.8761 22.2559 21.2029 21.4143 21.2029 20.3762C21.2029 19.3381 21.8761 18.4965 22.7067 18.4965C23.5372 18.4965 24.2104 19.3381 24.2104 20.3762ZM18.1954 21.1065C17.8727 21.1065 17.6111 20.7796 17.6111 20.3762C17.6111 19.9728 17.8727 19.6459 18.1954 19.6459C18.5181 19.6459 18.7796 19.9728 18.7796 20.3762C18.7796 20.7796 18.5181 21.1065 18.1954 21.1065ZM22.7067 21.1065C22.384 21.1065 22.1224 20.7796 22.1224 20.3762C22.1224 19.9728 22.384 19.6459 22.7067 19.6459C23.0294 19.6459 23.2909 19.9728 23.2909 20.3762C23.2909 20.7796 23.0294 21.1065 22.7067 21.1065Z" fill="white"/>
</svg>