<svg xmlns="http://www.w3.org/2000/svg" width="34" height="34" viewBox="0 0 34 34" fill="none">
  <path d="M17 27.9792C16.7183 27.9789 16.4483 27.8668 16.2492 27.6675L6.65837 18.0483C5.36051 16.7243 4.63354 14.9441 4.63354 13.09C4.63354 11.2359 5.36051 9.45574 6.65837 8.13166C7.97344 6.81672 9.75699 6.078 11.6167 6.078C13.4764 6.078 15.26 6.81672 16.575 8.13166L17 8.5L17.3967 8.10333C18.0469 7.446 18.8214 6.9246 19.6751 6.5695C20.5288 6.21441 21.4446 6.03271 22.3692 6.035C23.2928 6.03086 24.208 6.21033 25.0616 6.56297C25.9153 6.91561 26.6903 7.43439 27.3417 8.08916C28.6396 9.41324 29.3665 11.1934 29.3665 13.0475C29.3665 14.9016 28.6396 16.6818 27.3417 18.0058L17.7509 27.625C17.6559 27.7314 17.5405 27.8176 17.4115 27.8784C17.2825 27.9393 17.1425 27.9735 17 27.9792ZM11.6309 8.14583C10.9875 8.14115 10.3495 8.26392 9.75378 8.50707C9.15807 8.75022 8.6164 9.10893 8.16003 9.5625C7.24044 10.4864 6.72417 11.7369 6.72417 13.0404C6.72417 14.344 7.24044 15.5944 8.16003 16.5183L17 25.415L25.8259 16.5467C26.2829 16.0901 26.6455 15.548 26.8929 14.9512C27.1402 14.3544 27.2676 13.7148 27.2676 13.0687C27.2676 12.4227 27.1402 11.7831 26.8929 11.1863C26.6455 10.5895 26.2829 10.0474 25.8259 9.59083C25.3731 9.13641 24.8341 8.77701 24.2405 8.53374C23.6469 8.29046 23.0107 8.16821 22.3692 8.17416C21.7258 8.16948 21.0878 8.29226 20.4921 8.5354C19.8964 8.77855 19.3547 9.13726 18.8984 9.59083L17.7509 10.7383C17.5482 10.9306 17.2794 11.0379 17 11.0379C16.7206 11.0379 16.4519 10.9306 16.2492 10.7383L15.1017 9.59083C14.6477 9.13214 14.1071 8.76821 13.5112 8.52015C12.9154 8.2721 12.2763 8.14486 11.6309 8.14583Z" fill="#00B5A3"/>
</svg>