<svg xmlns="http://www.w3.org/2000/svg" width="34" height="34" viewBox="0 0 34 34" fill="none">
  <path d="M14.3469 5.75238C13.8599 7.83184 13.7938 9.98769 14.1522 12.0931C14.5107 14.1985 15.2866 16.211 16.4343 18.0121C17.582 19.8133 19.0782 21.3668 20.8351 22.5811C22.592 23.7955 24.5739 24.6463 26.6644 25.0835C25.5657 26.2214 24.2494 27.1267 22.7937 27.7455C21.338 28.3643 19.7727 28.6839 18.191 28.6854C18.0444 28.6854 17.8956 28.6907 17.7469 28.6854C14.9933 28.5884 12.3606 27.5298 10.3064 25.6936C8.25212 23.8573 6.90602 21.3595 6.50194 18.634C6.09786 15.9085 6.66133 13.1275 8.09447 10.7743C9.52761 8.42099 11.7398 6.64414 14.3469 5.75238ZM15.9162 3.1875C15.8538 3.1877 15.7916 3.19339 15.7302 3.2045C12.3479 3.80643 9.30779 5.63835 7.19527 8.34756C5.08275 11.0568 4.04716 14.4517 4.28788 17.8788C4.52861 21.3058 6.02864 24.5226 8.49916 26.9099C10.9697 29.2972 14.236 30.6861 17.6693 30.8093C17.8435 30.8157 18.0178 30.8093 18.1899 30.8093C20.4201 30.8109 22.6178 30.2754 24.5972 29.2481C26.5767 28.2207 28.2796 26.7318 29.5619 24.9071C29.6658 24.7499 29.7264 24.568 29.7377 24.3799C29.749 24.1918 29.7105 24.004 29.6262 23.8354C29.5419 23.6668 29.4146 23.5235 29.2573 23.4197C29.1 23.3159 28.9181 23.2555 28.7299 23.2443C26.6073 23.058 24.556 22.3862 22.7344 21.2806C20.9129 20.1751 19.37 18.6656 18.2249 16.8687C17.0798 15.0717 16.3632 13.0356 16.1306 10.9176C15.8979 8.79955 16.1553 6.6564 16.883 4.65375C16.9449 4.49345 16.9677 4.32068 16.9493 4.14983C16.9309 3.97898 16.8719 3.815 16.7773 3.67154C16.6827 3.52809 16.5552 3.40931 16.4054 3.32512C16.2556 3.24092 16.0879 3.19374 15.9162 3.1875Z" fill="#00B5A3"/>
</svg>