<svg xmlns="http://www.w3.org/2000/svg" width="24" height="24" viewBox="0 0 24 24" fill="none">
  <path d="M20.3361 3.22098L3.8731 8.70998C3.80569 8.7324 3.7467 8.7748 3.70397 8.83154C3.66123 8.88828 3.63677 8.95669 3.63384 9.02766C3.63091 9.09864 3.64965 9.16883 3.68756 9.2289C3.72547 9.28897 3.78077 9.33609 3.8461 9.36398L9.8961 11.957C9.9278 11.9707 9.96252 11.976 9.99687 11.9723C10.0312 11.9686 10.064 11.9561 10.0921 11.936L16.0231 7.69798C16.2071 7.56798 16.4331 7.79398 16.3031 7.97798L12.0651 13.909C12.0453 13.937 12.0331 13.9697 12.0296 14.0039C12.0261 14.038 12.0314 14.0725 12.0451 14.104L14.6371 20.154C14.6649 20.2193 14.7119 20.2747 14.7719 20.3127C14.832 20.3507 14.9021 20.3695 14.9731 20.3667C15.044 20.3639 15.1125 20.3395 15.1693 20.2969C15.2261 20.2543 15.2686 20.1953 15.2911 20.128L20.7801 3.66398C20.8008 3.60227 20.8038 3.53603 20.7889 3.47268C20.774 3.40934 20.7417 3.35141 20.6957 3.30539C20.6497 3.25938 20.5917 3.2271 20.5284 3.21219C20.4651 3.19728 20.3978 3.20033 20.3361 3.22098Z" fill="#00B5A3"/>
</svg>