<svg xmlns="http://www.w3.org/2000/svg" width="34" height="34" viewBox="0 0 34 34" fill="none">
  <path d="M13.2813 16.3917C13.8663 20.2845 12.7945 22.4128 9.76775 22.8604C6.40427 23.3577 5.01838 21.1046 4.43334 17.2118C3.64642 11.9737 5.49584 8.71582 8.13283 8.50598C10.5328 8.31539 12.6956 12.4997 13.2813 16.3917ZM14.8518 27.1954C15.0597 29.4054 13.865 31.4679 12.0628 31.8212C10.2432 32.1772 8.16404 30.7341 7.74037 28.5547C7.3167 26.3752 8.91908 26.2597 10.8827 25.8845C12.8463 25.5093 14.6008 24.5298 14.8518 27.1954ZM20.7188 10.0161C20.1338 13.9088 21.2056 16.0371 24.2317 16.4847C27.5958 16.9821 28.9811 14.7289 29.5661 10.8362C30.3537 5.59738 28.5036 2.32156 25.8673 2.13031C23.4501 1.955 21.3045 6.12332 20.7188 10.0161ZM19.1483 20.8204C18.9404 23.0297 20.1351 25.0929 21.9374 25.4462C23.7569 25.8022 25.8361 24.3591 26.2597 22.1797C26.6834 20.0002 25.081 19.8847 23.1174 19.5088C21.1538 19.133 19.3993 18.1541 19.1483 20.8204Z" stroke="#00B5A3" stroke-width="2" stroke-miterlimit="10"/>
</svg>