<svg width="40" height="40" viewBox="0 0 40 40" fill="none" xmlns="http://www.w3.org/2000/svg">
<rect width="40" height="40" rx="20" fill="#00B5A3"/>
<path fill-rule="evenodd" clip-rule="evenodd" d="M28.4123 14.5608C28.6375 13.4629 27.5591 12.5505 26.5137 12.9544L13.6988 17.9056C12.5314 18.3567 12.4794 19.9893 13.6157 20.5137L16.4065 21.8018L17.734 26.4483C17.803 26.6896 17.9945 26.8765 18.2375 26.9395C18.4805 27.0024 18.7387 26.9321 18.9161 26.7546L20.9611 24.7096L23.8258 26.8581C24.6574 27.4817 25.855 27.0275 26.0639 26.0093L28.4123 14.5608ZM14.2095 19.2273L27.0244 14.2761L24.6759 25.7246L21.3197 23.2074C21.0377 22.9959 20.6431 23.024 20.3938 23.2732L19.5179 24.1491L19.781 22.7018L24.9378 17.5451C25.1887 17.2941 25.2152 16.8962 24.9998 16.6141C24.7844 16.3321 24.3935 16.253 24.0854 16.4291L16.9638 20.4985L14.2095 19.2273ZM17.8321 21.6342L18.2617 23.1377L18.4266 22.2306C18.4524 22.0888 18.5208 21.9583 18.6227 21.8564L20.1953 20.2838L17.8321 21.6342Z" fill="white"/>
</svg>
